HIERARCHY
ROOT Hips
{
	OFFSET -0.179506 -22.333345 2.821913
	CHANNELS 6 Xposition Yposition Zposition Zrotation Yrotation Xrotation 
	JOINT LeftUpLeg
	{
		OFFSET 6.951974 -9.140623 -0.681533
		CHANNELS 3 Zrotation Yrotation Xrotation
		JOINT LeftLeg
		{
			OFFSET 3.427654 -37.519855 -0.449580
			CHANNELS 3 Zrotation Yrotation Xrotation
			JOINT LeftFoot
			{
				OFFSET -1.359570 -39.796059 -4.369333
				CHANNELS 3 Zrotation Yrotation Xrotation
				JOINT LeftToe
				{
					OFFSET 2.635814 -5.579078 11.928840
					CHANNELS 3 Zrotation Yrotation Xrotation
					End Site
					{
						OFFSET 0.000000 0.000000 0.000000
					}
				}
			}
		}
	}
	JOINT RightUpLeg
	{
		OFFSET -6.767048 -9.052170 -0.431982
		CHANNELS 3 Zrotation Yrotation Xrotation
		JOINT RightLeg
		{
			OFFSET -3.829005 -38.256897 -0.885003
			CHANNELS 3 Zrotation Yrotation Xrotation
			JOINT RightFoot
			{
				OFFSET 1.577377 -39.841461 -4.231180
				CHANNELS 3 Zrotation Yrotation Xrotation
				JOINT RightToe
				{
					OFFSET -2.537174 -4.814398 12.334795
					CHANNELS 3 Zrotation Yrotation Xrotation
					End Site
					{
						OFFSET 0.000000 0.000000 0.000000
					}
				}
			}
		}
	}
	JOINT Spine
	{
		OFFSET -0.253288 10.896323 -2.669631
		CHANNELS 3 Zrotation Yrotation Xrotation
		JOINT Spine1
		{
			OFFSET 0.548704 13.518043 0.109247
			CHANNELS 3 Zrotation Yrotation Xrotation
			JOINT Spine2
			{
				OFFSET 0.145701 5.292222 2.542457
				CHANNELS 3 Zrotation Yrotation Xrotation
				JOINT Neck
				{
					OFFSET -0.277840 21.387037 -4.285703
					CHANNELS 3 Zrotation Yrotation Xrotation
					JOINT Head
					{
						OFFSET 0.515184 6.496960 5.134897
						CHANNELS 3 Zrotation Yrotation Xrotation
						End Site
						{
							OFFSET 0.000000 0.000000 0.000000
						}
					}
				}
				JOINT LeftShoulder
				{
					OFFSET 7.884473 12.174932 -3.408961
					CHANNELS 3 Zrotation Yrotation Xrotation
					JOINT LeftArm
					{
						OFFSET 9.097692 3.046888 -0.886815
						CHANNELS 3 Zrotation Yrotation Xrotation
						JOINT LeftForeArm
						{
							OFFSET 25.961220 -1.277207 -2.745643
							CHANNELS 3 Zrotation Yrotation Xrotation
							JOINT LeftHand
							{
								OFFSET 24.923361 0.898606 -0.117091
								CHANNELS 3 Zrotation Yrotation Xrotation
								End Site
								{
									OFFSET 0.000000 0.000000 0.000000
								}
							}
						}
					}
				}
				JOINT RightShoulder
				{
					OFFSET -8.175920 11.883285 -3.861528
					CHANNELS 3 Zrotation Yrotation Xrotation
					JOINT RightArm
					{
						OFFSET -9.601238 3.255117 -0.914307
						CHANNELS 3 Zrotation Yrotation Xrotation
						JOINT RightForeArm
						{
							OFFSET -25.374195 -1.332924 -2.140099
							CHANNELS 3 Zrotation Yrotation Xrotation
							JOINT RightHand
							{
								OFFSET -25.529810 0.777228 -0.555919
								CHANNELS 3 Zrotation Yrotation Xrotation
								End Site
								{
									OFFSET 0.000000 0.000000 0.000000
								}
							}
						}
					}
				}
			}
		}
	}
}
MOTION
Frames: 6
Frame Time: 0.033333
-54.287579 -379.425995 84.872070 -165.316118 3.270040 101.304350 11.236471 10.893827 7.338575 -2.202275 0.301430 5.750022 1.985812 22.679600 -37.208723 nan nan nan -8.359924 -5.522195 -64.899488 3.522767 -22.009884 74.230842 6.122105 -0.852676 5.658737 nan nan nan -0.985263 -10.971623 17.527639 9.016862 -0.010375 8.582966 2.721476 -4.455003 -4.566204 -2.522094 8.519116 -6.230882 -0.669563 -2.690274 -17.903997 -20.138679 1.551249 0.996818 -57.675575 -8.845207 22.819521 147.394175 -83.261354 -137.445165 17.816204 -31.558407 -21.138591 21.221063 -8.285036 3.590530 47.626728 -25.960297 10.259080 1.158924 43.204575 11.734716 -8.332809 19.182430 -22.481030 
-54.497074 -377.018036 85.526352 -165.252824 2.928132 100.828714 11.865066 11.231023 9.403068 -1.334929 -0.026318 3.089468 1.790679 22.382205 -36.397823 nan nan nan -8.484975 -5.355837 -63.655021 4.077558 -21.289149 71.213808 6.527375 -0.584214 6.599589 nan nan nan -1.121265 -11.095093 17.128042 9.050258 -0.146692 9.262213 2.659202 -4.501240 -4.924385 -2.341396 8.658282 -5.712413 -0.753081 -3.007427 -17.967465 -20.167064 1.769720 1.413476 -57.576891 -8.393168 23.026860 157.102345 -82.388189 -146.662704 18.246865 -32.097233 -21.468795 21.018754 -8.518142 3.879281 48.203653 -26.296322 10.214742 1.027390 42.968335 11.402761 -8.493792 19.482760 -23.307024 
-54.718967 -374.763031 86.180672 -166.096001 2.470753 100.153489 11.712887 10.540758 12.029539 -1.034170 -3.632836 5.072455 1.034108 21.953298 -38.880600 nan nan nan -8.433331 -5.053108 -62.572427 4.957941 -20.215105 66.750080 4.540445 -1.078504 -2.488521 nan nan nan -1.409262 -11.074947 17.189209 8.594538 -0.064877 9.975379 2.645967 -4.556317 -5.265869 -2.623012 8.499596 -5.518567 -0.197449 -2.756690 -18.255158 -19.841151 2.773341 1.929892 -57.383372 -8.775329 23.004137 164.813657 -81.679677 -153.830040 17.352533 -33.234218 -20.625274 20.388589 -8.539329 4.480331 49.263138 -25.412782 10.018101 0.200058 42.573700 10.938482 -8.588646 20.373874 -24.632974 
-54.795990 -372.314209 86.717407 -165.958734 2.205616 99.503996 12.292974 10.596908 13.527216 -0.484759 -4.043218 3.730833 0.937974 21.959561 -39.299553 nan nan nan -8.390320 -4.681189 -60.760031 5.580077 -19.340670 64.477979 4.874454 -0.848042 -2.313301 nan nan nan -1.742983 -11.116476 17.023096 8.700780 -0.331039 10.506866 2.637750 -4.590674 -5.302192 -2.430537 8.702795 -4.711359 -0.126117 -2.861759 -18.893065 -19.518488 3.199660 2.286812 -57.376445 -8.656857 22.986495 171.236205 -81.006098 -159.568052 16.251688 -34.096425 -20.145254 20.152969 -8.920296 4.545861 49.725315 -24.990229 9.790998 -0.789927 42.726385 11.715106 -7.881095 20.737938 -23.913158 
-54.873226 -369.951721 87.122375 -166.718141 1.895872 99.549385 12.010999 7.940459 15.581420 -1.988306 -7.662674 18.030364 0.641329 23.100287 -46.433986 nan nan nan -8.432408 -3.422907 -59.939886 6.814515 -18.140790 62.395771 3.964150 -1.006094 -3.808755 nan nan nan -2.268311 -10.910862 15.586901 9.009962 -0.178072 11.805704 2.502152 -4.558105 -5.542017 -2.729631 8.583998 -3.937180 0.257128 -2.683268 -19.589326 -19.524881 4.097615 2.939803 -57.334353 -9.151318 22.975113 176.466380 -80.893132 -165.100802 14.490557 -34.850246 -19.240672 20.227655 -8.884133 4.953871 50.089473 -24.699114 8.893884 -0.346637 42.256429 11.177485 -6.982432 21.335071 -25.285142 
-55.068077 -367.467407 87.526726 -166.603770 1.383310 98.525616 11.128843 7.800906 16.602557 -3.226985 -9.968703 18.350889 0.249437 22.688811 -48.789499 nan nan nan -8.304029 -3.525210 -57.594726 7.019575 -17.623871 61.749750 3.605257 -2.677218 -12.953134 nan nan nan -2.547811 -10.753886 15.639609 8.687401 -0.648491 12.389357 2.655294 -4.718590 -5.371220 -3.114518 8.173386 -3.971559 0.814456 -2.147443 -19.817090 -19.281161 4.420934 3.285223 -57.287536 -9.054588 22.864029 -178.380051 -80.857629 -170.191264 14.778332 -35.387415 -18.410661 20.104145 -8.495433 5.077864 50.943434 -24.507511 9.044779 -0.828441 41.820958 9.504629 -8.580635 22.055668 -27.855763 
